<mxfile host="app.diagrams.net" agent="Mozilla/5.0 (Windows NT 10.0; Win64; x64) AppleWebKit/537.36 (KHTML, like Gecko) Chrome/128.0.0.0 Safari/537.36" version="24.7.13">
  <diagram name="Page-1" id="H48xrG2T90LR6pYWh2Qc">
    <mxGraphModel dx="2364" dy="1818" grid="1" gridSize="10" guides="1" tooltips="1" connect="1" arrows="1" fold="1" page="1" pageScale="1" pageWidth="850" pageHeight="1100" math="0" shadow="0">
      <root>
        <mxCell id="0" />
        <mxCell id="1" parent="0" />
        <mxCell id="YlhhfSobjes1HJvtvpS9-1" value="Amazon" style="whiteSpace=wrap;html=1;align=center;" vertex="1" parent="1">
          <mxGeometry x="410" y="620" width="100" height="40" as="geometry" />
        </mxCell>
        <mxCell id="YlhhfSobjes1HJvtvpS9-2" value="Supplier" style="whiteSpace=wrap;html=1;align=center;" vertex="1" parent="1">
          <mxGeometry x="90" y="45" width="100" height="40" as="geometry" />
        </mxCell>
        <mxCell id="YlhhfSobjes1HJvtvpS9-3" value="Customer" style="whiteSpace=wrap;html=1;align=center;" vertex="1" parent="1">
          <mxGeometry x="730" y="43" width="100" height="40" as="geometry" />
        </mxCell>
        <mxCell id="YlhhfSobjes1HJvtvpS9-4" value="Barang" style="shape=ext;margin=3;double=1;whiteSpace=wrap;html=1;align=center;" vertex="1" parent="1">
          <mxGeometry x="90" y="-35" width="100" height="40" as="geometry" />
        </mxCell>
        <mxCell id="YlhhfSobjes1HJvtvpS9-5" value="Approving" style="shape=rhombus;perimeter=rhombusPerimeter;whiteSpace=wrap;html=1;align=center;" vertex="1" parent="1">
          <mxGeometry x="80" y="670" width="120" height="60" as="geometry" />
        </mxCell>
        <mxCell id="YlhhfSobjes1HJvtvpS9-11" value="" style="shape=link;html=1;rounded=0;entryX=0.5;entryY=1;entryDx=0;entryDy=0;exitX=0.5;exitY=0;exitDx=0;exitDy=0;" edge="1" parent="1" source="YlhhfSobjes1HJvtvpS9-5" target="YlhhfSobjes1HJvtvpS9-2">
          <mxGeometry relative="1" as="geometry">
            <mxPoint x="440" y="220" as="sourcePoint" />
            <mxPoint x="600" y="220" as="targetPoint" />
          </mxGeometry>
        </mxCell>
        <mxCell id="YlhhfSobjes1HJvtvpS9-12" value="N" style="resizable=0;html=1;whiteSpace=wrap;align=right;verticalAlign=bottom;" connectable="0" vertex="1" parent="YlhhfSobjes1HJvtvpS9-11">
          <mxGeometry x="1" relative="1" as="geometry" />
        </mxCell>
        <mxCell id="YlhhfSobjes1HJvtvpS9-13" value="" style="endArrow=none;html=1;rounded=0;entryX=0;entryY=0.5;entryDx=0;entryDy=0;exitX=1;exitY=0.5;exitDx=0;exitDy=0;" edge="1" parent="1" source="YlhhfSobjes1HJvtvpS9-5" target="YlhhfSobjes1HJvtvpS9-1">
          <mxGeometry relative="1" as="geometry">
            <mxPoint x="210" y="580" as="sourcePoint" />
            <mxPoint x="600" y="450" as="targetPoint" />
          </mxGeometry>
        </mxCell>
        <mxCell id="YlhhfSobjes1HJvtvpS9-14" value="M" style="resizable=0;html=1;whiteSpace=wrap;align=left;verticalAlign=bottom;" connectable="0" vertex="1" parent="YlhhfSobjes1HJvtvpS9-13">
          <mxGeometry x="-1" relative="1" as="geometry" />
        </mxCell>
        <mxCell id="YlhhfSobjes1HJvtvpS9-15" value="N" style="resizable=0;html=1;whiteSpace=wrap;align=right;verticalAlign=bottom;" connectable="0" vertex="1" parent="YlhhfSobjes1HJvtvpS9-13">
          <mxGeometry x="1" relative="1" as="geometry" />
        </mxCell>
        <mxCell id="YlhhfSobjes1HJvtvpS9-16" value="Semua barang harus disetujui, tapi tidak semua barang disetujuui" style="shape=note;size=20;whiteSpace=wrap;html=1;" vertex="1" parent="1">
          <mxGeometry x="-70" y="430" width="140" height="90" as="geometry" />
        </mxCell>
        <mxCell id="YlhhfSobjes1HJvtvpS9-17" value="Banyak barang. Barang tidak wajib terdaftar saat pembuatan akun supplier" style="shape=note;size=20;whiteSpace=wrap;html=1;" vertex="1" parent="1">
          <mxGeometry x="-70" y="-90" width="140" height="95" as="geometry" />
        </mxCell>
        <mxCell id="YlhhfSobjes1HJvtvpS9-18" value="Banyak barang, banyak pegawai" style="shape=note;size=20;whiteSpace=wrap;html=1;" vertex="1" parent="1">
          <mxGeometry x="30" y="740" width="140" height="90" as="geometry" />
        </mxCell>
        <mxCell id="YlhhfSobjes1HJvtvpS9-19" value="Keranjang" style="shape=ext;margin=3;double=1;whiteSpace=wrap;html=1;align=center;" vertex="1" parent="1">
          <mxGeometry x="730" y="-35" width="100" height="40" as="geometry" />
        </mxCell>
        <mxCell id="YlhhfSobjes1HJvtvpS9-21" value="" style="endArrow=none;dashed=1;html=1;dashPattern=1 3;strokeWidth=2;rounded=0;entryX=0.5;entryY=1;entryDx=0;entryDy=0;exitX=0.5;exitY=0;exitDx=0;exitDy=0;" edge="1" parent="1" source="YlhhfSobjes1HJvtvpS9-2" target="YlhhfSobjes1HJvtvpS9-4">
          <mxGeometry width="50" height="50" relative="1" as="geometry">
            <mxPoint x="490" y="135" as="sourcePoint" />
            <mxPoint x="540" y="85" as="targetPoint" />
          </mxGeometry>
        </mxCell>
        <mxCell id="YlhhfSobjes1HJvtvpS9-22" value="" style="endArrow=none;dashed=1;html=1;dashPattern=1 3;strokeWidth=2;rounded=0;exitX=0.5;exitY=0;exitDx=0;exitDy=0;entryX=0.5;entryY=1;entryDx=0;entryDy=0;" edge="1" parent="1" source="YlhhfSobjes1HJvtvpS9-3" target="YlhhfSobjes1HJvtvpS9-19">
          <mxGeometry width="50" height="50" relative="1" as="geometry">
            <mxPoint x="170" y="55" as="sourcePoint" />
            <mxPoint x="420" y="35" as="targetPoint" />
          </mxGeometry>
        </mxCell>
        <mxCell id="YlhhfSobjes1HJvtvpS9-23" value="customer dapat membeli banyak barang. Keranjang dibuat saat customer membuat pesanan" style="shape=note;size=20;whiteSpace=wrap;html=1;" vertex="1" parent="1">
          <mxGeometry x="850" y="-90" width="140" height="90" as="geometry" />
        </mxCell>
        <mxCell id="YlhhfSobjes1HJvtvpS9-24" value="Requesting" style="shape=rhombus;perimeter=rhombusPerimeter;whiteSpace=wrap;html=1;align=center;" vertex="1" parent="1">
          <mxGeometry x="400" width="120" height="60" as="geometry" />
        </mxCell>
        <mxCell id="YlhhfSobjes1HJvtvpS9-25" value="" style="endArrow=none;html=1;rounded=0;dashed=1;dashPattern=1 2;exitX=1;exitY=0.5;exitDx=0;exitDy=0;entryX=0;entryY=0.5;entryDx=0;entryDy=0;" edge="1" parent="1" source="YlhhfSobjes1HJvtvpS9-2" target="YlhhfSobjes1HJvtvpS9-24">
          <mxGeometry relative="1" as="geometry">
            <mxPoint x="440" y="105" as="sourcePoint" />
            <mxPoint x="600" y="105" as="targetPoint" />
          </mxGeometry>
        </mxCell>
        <mxCell id="YlhhfSobjes1HJvtvpS9-26" value="M" style="resizable=0;html=1;whiteSpace=wrap;align=left;verticalAlign=bottom;" connectable="0" vertex="1" parent="YlhhfSobjes1HJvtvpS9-25">
          <mxGeometry x="-1" relative="1" as="geometry" />
        </mxCell>
        <mxCell id="YlhhfSobjes1HJvtvpS9-27" value="N" style="resizable=0;html=1;whiteSpace=wrap;align=right;verticalAlign=bottom;" connectable="0" vertex="1" parent="YlhhfSobjes1HJvtvpS9-25">
          <mxGeometry x="1" relative="1" as="geometry" />
        </mxCell>
        <mxCell id="YlhhfSobjes1HJvtvpS9-28" value="" style="endArrow=none;html=1;rounded=0;dashed=1;dashPattern=1 2;exitX=0;exitY=0.5;exitDx=0;exitDy=0;entryX=1;entryY=0.5;entryDx=0;entryDy=0;" edge="1" parent="1" source="YlhhfSobjes1HJvtvpS9-19" target="YlhhfSobjes1HJvtvpS9-24">
          <mxGeometry relative="1" as="geometry">
            <mxPoint x="200" y="75" as="sourcePoint" />
            <mxPoint x="340" y="30" as="targetPoint" />
          </mxGeometry>
        </mxCell>
        <mxCell id="YlhhfSobjes1HJvtvpS9-29" value="M" style="resizable=0;html=1;whiteSpace=wrap;align=left;verticalAlign=bottom;" connectable="0" vertex="1" parent="YlhhfSobjes1HJvtvpS9-28">
          <mxGeometry x="-1" relative="1" as="geometry" />
        </mxCell>
        <mxCell id="YlhhfSobjes1HJvtvpS9-30" value="N" style="resizable=0;html=1;whiteSpace=wrap;align=right;verticalAlign=bottom;" connectable="0" vertex="1" parent="YlhhfSobjes1HJvtvpS9-28">
          <mxGeometry x="1" relative="1" as="geometry" />
        </mxCell>
        <mxCell id="YlhhfSobjes1HJvtvpS9-31" value="Tidak semua barang yang direquest tersedia" style="shape=note;size=20;whiteSpace=wrap;html=1;" vertex="1" parent="1">
          <mxGeometry x="210" y="-115" width="140" height="100" as="geometry" />
        </mxCell>
        <mxCell id="YlhhfSobjes1HJvtvpS9-32" value="Semua pesanan harus membuat request. Tidak semua barang dalam keranjang akan direquest" style="shape=note;size=20;whiteSpace=wrap;html=1;" vertex="1" parent="1">
          <mxGeometry x="560" y="-115" width="140" height="100" as="geometry" />
        </mxCell>
        <mxCell id="YlhhfSobjes1HJvtvpS9-33" value="Managing Invoices" style="shape=rhombus;perimeter=rhombusPerimeter;whiteSpace=wrap;html=1;align=center;" vertex="1" parent="1">
          <mxGeometry x="170" y="420" width="120" height="60" as="geometry" />
        </mxCell>
        <mxCell id="YlhhfSobjes1HJvtvpS9-34" value="" style="shape=link;html=1;rounded=0;exitX=1;exitY=0.5;exitDx=0;exitDy=0;entryX=0.5;entryY=0;entryDx=0;entryDy=0;" edge="1" parent="1" source="YlhhfSobjes1HJvtvpS9-2" target="YlhhfSobjes1HJvtvpS9-33">
          <mxGeometry relative="1" as="geometry">
            <mxPoint x="390" y="260" as="sourcePoint" />
            <mxPoint x="550" y="260" as="targetPoint" />
          </mxGeometry>
        </mxCell>
        <mxCell id="YlhhfSobjes1HJvtvpS9-35" value="M" style="resizable=0;html=1;whiteSpace=wrap;align=left;verticalAlign=bottom;" connectable="0" vertex="1" parent="YlhhfSobjes1HJvtvpS9-34">
          <mxGeometry x="-1" relative="1" as="geometry" />
        </mxCell>
        <mxCell id="YlhhfSobjes1HJvtvpS9-36" value="N" style="resizable=0;html=1;whiteSpace=wrap;align=right;verticalAlign=bottom;" connectable="0" vertex="1" parent="YlhhfSobjes1HJvtvpS9-34">
          <mxGeometry x="1" relative="1" as="geometry" />
        </mxCell>
        <mxCell id="YlhhfSobjes1HJvtvpS9-37" value="" style="shape=link;html=1;rounded=0;exitX=0;exitY=0;exitDx=0;exitDy=0;entryX=1;entryY=1;entryDx=0;entryDy=0;" edge="1" parent="1" source="YlhhfSobjes1HJvtvpS9-1" target="YlhhfSobjes1HJvtvpS9-33">
          <mxGeometry relative="1" as="geometry">
            <mxPoint x="200" y="420" as="sourcePoint" />
            <mxPoint x="283" y="469" as="targetPoint" />
          </mxGeometry>
        </mxCell>
        <mxCell id="YlhhfSobjes1HJvtvpS9-38" value="M" style="resizable=0;html=1;whiteSpace=wrap;align=left;verticalAlign=bottom;" connectable="0" vertex="1" parent="YlhhfSobjes1HJvtvpS9-37">
          <mxGeometry x="-1" relative="1" as="geometry" />
        </mxCell>
        <mxCell id="YlhhfSobjes1HJvtvpS9-39" value="N" style="resizable=0;html=1;whiteSpace=wrap;align=right;verticalAlign=bottom;" connectable="0" vertex="1" parent="YlhhfSobjes1HJvtvpS9-37">
          <mxGeometry x="1" relative="1" as="geometry" />
        </mxCell>
        <mxCell id="YlhhfSobjes1HJvtvpS9-40" value="Supplier wajib membuat invoice semua pesanan. Dan mengirimkannya ke Amazon" style="shape=note;size=20;whiteSpace=wrap;html=1;" vertex="1" parent="1">
          <mxGeometry x="160" y="530" width="140" height="100" as="geometry" />
        </mxCell>
        <mxCell id="YlhhfSobjes1HJvtvpS9-41" value="Bank" style="whiteSpace=wrap;html=1;align=center;" vertex="1" parent="1">
          <mxGeometry x="410" y="120" width="100" height="40" as="geometry" />
        </mxCell>
        <mxCell id="YlhhfSobjes1HJvtvpS9-42" value="Invoice" style="shape=ext;margin=3;double=1;whiteSpace=wrap;html=1;align=center;" vertex="1" parent="1">
          <mxGeometry x="560" y="430" width="100" height="40" as="geometry" />
        </mxCell>
        <mxCell id="YlhhfSobjes1HJvtvpS9-43" value="" style="endArrow=none;html=1;rounded=0;dashed=1;dashPattern=1 2;exitX=1;exitY=0.5;exitDx=0;exitDy=0;entryX=0;entryY=0.5;entryDx=0;entryDy=0;" edge="1" parent="1" source="YlhhfSobjes1HJvtvpS9-33" target="YlhhfSobjes1HJvtvpS9-42">
          <mxGeometry relative="1" as="geometry">
            <mxPoint x="480" y="450" as="sourcePoint" />
            <mxPoint x="650" y="300" as="targetPoint" />
          </mxGeometry>
        </mxCell>
        <mxCell id="YlhhfSobjes1HJvtvpS9-44" value="N" style="resizable=0;html=1;whiteSpace=wrap;align=right;verticalAlign=bottom;" connectable="0" vertex="1" parent="YlhhfSobjes1HJvtvpS9-43">
          <mxGeometry x="1" relative="1" as="geometry" />
        </mxCell>
        <mxCell id="YlhhfSobjes1HJvtvpS9-45" value="Supplier wajib membuat invoice semua pesanan. Dan mengirimkannya ke Amazon" style="shape=note;size=20;whiteSpace=wrap;html=1;" vertex="1" parent="1">
          <mxGeometry x="600" y="489.5" width="140" height="100" as="geometry" />
        </mxCell>
        <mxCell id="YlhhfSobjes1HJvtvpS9-46" value="Invoice dibuat" style="shape=note;size=20;whiteSpace=wrap;html=1;" vertex="1" parent="1">
          <mxGeometry x="520" y="360.5" width="95" height="59.5" as="geometry" />
        </mxCell>
        <mxCell id="YlhhfSobjes1HJvtvpS9-47" value="Transfering" style="shape=rhombus;perimeter=rhombusPerimeter;whiteSpace=wrap;html=1;align=center;" vertex="1" parent="1">
          <mxGeometry x="560" y="70" width="120" height="60" as="geometry" />
        </mxCell>
        <mxCell id="YlhhfSobjes1HJvtvpS9-48" value="" style="shape=link;html=1;rounded=0;exitX=0;exitY=0.5;exitDx=0;exitDy=0;entryX=1;entryY=0;entryDx=0;entryDy=0;" edge="1" parent="1" source="YlhhfSobjes1HJvtvpS9-3" target="YlhhfSobjes1HJvtvpS9-47">
          <mxGeometry relative="1" as="geometry">
            <mxPoint x="380" y="330" as="sourcePoint" />
            <mxPoint x="540" y="330" as="targetPoint" />
          </mxGeometry>
        </mxCell>
        <mxCell id="YlhhfSobjes1HJvtvpS9-49" value="M" style="resizable=0;html=1;whiteSpace=wrap;align=left;verticalAlign=bottom;" connectable="0" vertex="1" parent="YlhhfSobjes1HJvtvpS9-48">
          <mxGeometry x="-1" relative="1" as="geometry" />
        </mxCell>
        <mxCell id="YlhhfSobjes1HJvtvpS9-50" value="N" style="resizable=0;html=1;whiteSpace=wrap;align=right;verticalAlign=bottom;" connectable="0" vertex="1" parent="YlhhfSobjes1HJvtvpS9-48">
          <mxGeometry x="1" relative="1" as="geometry" />
        </mxCell>
      </root>
    </mxGraphModel>
  </diagram>
</mxfile>
